<svg 
 xmlns="http://www.w3.org/2000/svg"
 xmlns:xlink="http://www.w3.org/1999/xlink"
 width="2178px" height="514px">
<path fill-rule="evenodd"  fill="rgb(255, 255, 255)"
 d="M1056.1000,103.000 C1135.941,102.196 1180.782,123.096 1204.000,177.000 C1210.237,191.480 1212.274,207.971 1215.1000,225.000 C1219.679,241.817 1218.420,269.711 1214.1000,284.1000 C1212.393,296.656 1213.342,305.710 1209.1000,315.1000 C1194.146,364.809 1163.988,392.030 1111.1000,404.1000 C1099.997,407.995 1080.224,409.640 1067.1000,406.1000 C1063.001,406.1000 1057.999,406.1000 1053.000,406.1000 C1043.001,405.000 1032.999,402.1000 1022.1000,401.000 C984.384,388.431 959.808,361.519 944.1000,324.1000 C941.441,316.222 941.539,307.983 938.1000,297.1000 C934.779,281.405 931.539,245.172 935.1000,225.000 C939.292,210.115 940.662,195.060 945.1000,181.1000 C959.389,149.244 982.217,125.364 1014.1000,112.000 C1023.666,109.667 1032.334,107.333 1040.1000,104.1000 C1046.333,103.703 1052.950,105.503 1056.1000,103.000 ZM677.1000,107.000 C749.494,106.301 834.641,99.058 864.1000,140.000 C871.564,148.852 876.535,160.292 879.1000,172.000 C882.774,181.370 884.114,197.276 882.000,206.1000 C882.000,210.666 882.000,214.334 882.000,218.000 C879.736,227.900 877.848,238.235 873.1000,246.1000 C854.867,290.578 805.891,299.293 741.1000,299.000 C741.1000,333.663 741.1000,368.337 741.1000,402.1000 C729.566,407.132 693.921,404.074 677.1000,404.000 C677.1000,305.010 677.1000,205.990 677.1000,107.000 ZM1250.1000,107.000 C1271.998,107.000 1293.002,107.000 1314.000,107.000 C1314.741,122.559 1322.592,147.597 1327.000,162.000 C1336.159,191.925 1338.426,221.833 1347.000,252.000 C1353.639,275.360 1363.387,310.102 1363.1000,336.1000 C1364.333,336.1000 1364.667,336.1000 1364.1000,336.1000 C1364.1000,336.667 1364.1000,336.333 1364.1000,336.000 C1368.1000,315.335 1373.000,294.665 1376.1000,274.000 C1387.066,243.151 1391.634,209.895 1402.000,178.000 C1409.308,155.515 1415.729,130.711 1421.000,107.000 C1440.998,107.000 1461.002,107.000 1480.1000,107.000 C1481.333,107.333 1481.667,107.667 1482.000,107.1000 C1482.986,118.270 1487.090,129.150 1489.1000,138.000 C1495.517,154.779 1497.812,172.178 1502.1000,187.1000 C1507.375,201.344 1507.878,213.604 1511.1000,227.000 C1522.729,261.866 1529.062,298.986 1537.000,337.1000 C1537.333,337.1000 1537.667,337.1000 1537.1000,337.1000 C1537.1000,336.000 1537.1000,333.1000 1537.1000,331.1000 C1541.333,314.335 1544.667,296.665 1547.1000,278.1000 C1559.408,238.796 1566.649,195.199 1578.000,155.000 C1581.278,143.389 1583.309,115.859 1589.000,107.1000 C1592.490,105.807 1601.716,107.000 1607.000,107.000 C1621.665,107.000 1636.335,107.000 1650.1000,107.000 C1650.976,116.451 1647.312,124.376 1644.1000,132.000 C1640.166,147.942 1637.527,164.074 1633.000,178.1000 C1618.684,226.199 1611.016,274.668 1596.1000,321.000 C1591.008,340.808 1587.769,360.918 1582.000,379.1000 C1579.710,387.576 1580.252,397.211 1576.000,402.1000 C1572.154,405.410 1561.718,403.1000 1556.000,404.000 C1538.668,404.000 1521.332,404.000 1504.000,404.000 C1504.000,403.333 1504.000,402.667 1504.000,401.1000 C1501.208,397.796 1501.700,392.540 1499.1000,386.1000 C1495.751,373.153 1493.477,358.633 1489.000,343.1000 C1478.593,309.987 1470.745,273.329 1460.1000,239.000 C1457.667,222.002 1454.333,204.998 1450.1000,187.1000 C1450.667,187.1000 1450.333,187.1000 1450.000,187.1000 C1450.000,189.1000 1450.000,192.000 1450.000,194.000 C1448.187,197.005 1449.104,200.940 1447.1000,205.000 C1444.265,218.732 1443.132,233.633 1438.1000,247.1000 C1428.926,283.031 1421.233,321.372 1409.1000,355.1000 C1406.085,368.068 1404.202,394.432 1398.000,402.1000 C1394.154,405.410 1383.718,403.1000 1377.1000,404.000 C1360.668,404.000 1343.332,404.000 1325.1000,404.000 C1325.1000,403.333 1325.1000,402.667 1325.1000,401.1000 C1321.177,394.709 1321.756,383.056 1318.1000,373.1000 C1312.880,353.887 1309.811,331.978 1302.1000,311.000 C1289.471,269.332 1283.022,224.904 1269.1000,181.1000 C1265.027,165.617 1262.257,148.327 1256.1000,131.000 C1254.703,123.430 1251.604,116.167 1250.1000,107.000 ZM1698.000,107.000 C1754.994,107.000 1812.006,107.000 1869.000,107.000 C1872.968,118.906 1870.079,145.453 1870.000,159.1000 C1834.004,159.1000 1797.996,159.1000 1762.000,159.1000 C1762.000,180.998 1762.000,202.002 1762.000,222.1000 C1795.330,222.1000 1828.670,222.1000 1862.000,222.1000 C1862.000,240.665 1862.000,258.335 1862.000,275.1000 C1828.670,275.1000 1795.330,275.1000 1762.000,275.1000 C1762.000,300.664 1762.000,325.336 1762.000,349.1000 C1797.663,349.1000 1833.337,349.1000 1869.000,349.1000 C1872.968,361.906 1870.079,388.453 1870.000,402.1000 C1857.693,407.051 1830.954,404.000 1815.1000,404.000 C1776.671,404.000 1737.329,404.000 1698.000,404.000 C1698.000,305.010 1698.000,205.990 1698.000,107.000 ZM1941.000,107.000 C2007.370,106.310 2081.142,101.914 2119.000,130.000 C2131.250,139.088 2139.436,155.264 2144.000,172.000 C2144.333,176.333 2144.667,180.667 2144.1000,184.1000 C2147.960,198.534 2145.358,216.648 2141.000,227.000 C2135.225,240.718 2124.476,254.785 2112.1000,262.1000 C2107.469,266.959 2095.216,269.977 2092.000,275.1000 C2100.776,283.070 2111.142,304.693 2118.000,314.1000 C2131.436,335.194 2144.871,355.832 2159.000,376.000 C2164.910,384.436 2174.891,393.382 2178.000,404.000 C2154.336,404.000 2130.664,404.000 2107.000,404.000 C2102.840,394.847 2096.134,387.119 2091.000,378.1000 C2079.742,361.196 2068.974,343.381 2057.1000,325.1000 C2054.385,320.275 2040.540,292.323 2037.000,290.000 C2026.334,290.000 2015.666,290.000 2005.000,290.000 C2005.000,327.996 2005.000,366.004 2005.000,404.000 C1983.669,404.000 1962.331,404.000 1941.000,404.000 C1941.000,305.010 1941.000,205.990 1941.000,107.000 ZM1067.1000,156.000 C1062.122,159.617 1052.317,158.336 1046.000,160.1000 C1026.258,169.326 1013.836,187.691 1006.1000,209.000 C994.933,246.614 1002.485,304.873 1019.1000,328.1000 C1026.471,337.913 1035.975,343.389 1046.1000,348.000 C1054.343,351.071 1069.188,356.564 1080.1000,353.1000 C1116.248,346.348 1130.847,338.446 1143.000,308.000 C1147.495,296.738 1146.086,285.564 1148.1000,271.1000 C1152.167,257.256 1150.220,234.521 1147.000,221.1000 C1135.813,178.502 1123.024,155.437 1067.1000,156.000 ZM741.1000,159.1000 C741.1000,188.664 741.1000,217.336 741.1000,246.000 C779.001,246.629 805.102,244.440 814.1000,218.000 C817.290,211.883 819.020,202.073 816.1000,194.000 C815.414,187.662 815.925,182.737 812.1000,178.000 C801.393,159.206 773.046,159.479 741.1000,159.1000 ZM2005.000,159.1000 C2005.000,185.997 2005.000,212.003 2005.000,237.1000 C2044.065,238.652 2071.749,237.621 2080.000,206.1000 C2081.452,201.612 2081.855,190.597 2080.000,184.1000 C2071.819,160.315 2038.486,159.448 2005.000,159.1000 Z"/>
<path fill-rule="evenodd"  fill="rgb(191, 227, 0)"
 d="M327.000,1.000 C334.665,0.942 342.768,0.369 347.1000,3.000 C354.070,6.053 358.371,12.371 362.1000,17.000 C370.999,24.666 379.001,32.334 387.000,40.000 C390.763,43.762 393.534,48.988 399.000,50.1000 C407.982,37.415 423.410,27.244 435.000,16.000 C438.666,16.000 442.334,16.000 446.000,16.000 C452.489,18.144 457.471,26.471 462.000,31.000 C474.214,43.214 486.019,55.521 497.1000,68.000 C498.159,95.362 469.767,98.654 463.000,117.000 C472.666,126.666 482.334,136.334 491.1000,146.000 C498.998,152.998 508.021,159.094 511.1000,169.000 C520.688,190.633 502.160,206.564 487.1000,209.1000 C475.735,212.976 467.599,205.160 462.000,201.000 C449.552,191.751 439.844,179.845 428.1000,169.000 C400.336,140.336 371.664,111.664 342.1000,83.000 C331.742,71.742 310.678,56.445 304.1000,41.000 C297.239,19.887 314.141,10.298 323.000,1.1000 C325.328,1.805 325.826,1.807 327.000,1.000 ZM243.000,43.000 C250.374,42.955 256.811,42.782 261.1000,44.1000 C274.802,50.473 294.587,75.587 304.1000,86.000 C348.996,129.662 393.004,173.338 436.1000,217.000 C450.161,230.160 488.508,260.226 463.000,285.1000 C435.909,313.374 404.366,272.367 389.1000,258.000 C350.671,218.337 311.329,178.663 271.1000,138.1000 C260.334,127.335 248.665,115.666 237.000,103.1000 C231.717,98.717 224.123,93.187 221.000,86.000 C214.142,70.221 223.588,53.079 232.1000,46.1000 C236.020,45.049 240.267,45.098 243.000,43.000 ZM270.000,179.000 C277.082,181.504 282.030,190.030 286.1000,195.000 C298.332,206.332 309.668,217.668 320.1000,228.1000 C325.482,233.482 332.708,237.563 334.1000,244.000 C312.669,265.998 290.331,288.002 268.000,309.1000 C261.549,316.451 250.403,331.965 242.000,334.1000 C221.002,314.002 199.998,292.998 179.000,271.1000 C178.510,269.578 198.294,251.706 200.1000,248.1000 C223.998,225.669 247.002,202.331 270.000,179.000 ZM70.000,219.000 C97.035,219.091 115.479,248.479 130.000,262.1000 C174.662,307.329 219.338,351.671 264.000,395.1000 C275.573,407.573 301.597,425.927 292.1000,450.000 C291.011,455.568 289.192,460.830 285.000,463.1000 C254.497,487.061 225.472,445.472 210.000,429.1000 C171.671,391.337 133.329,352.663 94.1000,313.1000 C83.668,302.668 72.332,291.332 61.000,279.1000 C55.641,274.641 48.085,269.428 45.000,262.000 C38.866,247.228 47.011,229.1000 56.000,224.000 C59.973,221.348 65.935,221.685 70.000,219.000 ZM26.000,303.1000 C54.135,303.857 64.836,324.836 78.1000,338.1000 C114.330,373.996 149.670,409.003 184.1000,444.000 C196.903,455.902 221.355,476.865 205.000,500.1000 C199.304,509.405 180.579,518.345 166.000,510.1000 C159.930,507.942 155.631,501.631 151.000,496.1000 C143.001,489.334 134.999,481.666 126.1000,473.1000 C123.233,470.233 120.467,465.023 115.000,462.1000 C104.001,474.332 92.999,485.668 82.000,496.1000 C77.447,499.514 73.020,498.174 67.1000,497.1000 C50.327,480.813 33.189,463.672 16.000,446.000 C15.841,418.638 44.233,415.346 50.1000,397.000 C41.334,387.334 31.666,377.666 22.000,367.1000 C15.002,361.002 5.978,354.906 2.000,344.1000 C-1.781,335.586 2.183,321.622 6.000,315.1000 C10.726,309.040 19.007,308.848 26.000,303.1000 Z"/>
</svg>